<?xml version="1.0" encoding="utf-8"?>
<!-- Generator: Adobe Illustrator 24.2.1, SVG Export Plug-In . SVG Version: 6.00 Build 0)  -->
<svg version="1.1" id="currentIllo" xmlns="http://www.w3.org/2000/svg" xmlns:xlink="http://www.w3.org/1999/xlink" x="0px"
	 y="0px" viewBox="0 0 757 473.4" style="enable-background:new 0 0 757 473.4;" xml:space="preserve">
<style type="text/css">
	.st0{fill:#A0616A;}
	.st1{fill:#6C63FF;}
	.st2{fill:#2F2E41;}
	.st3{fill:#3F3D56;}
	.st4{fill:#CCCCCC;}
</style>
<path class="st0" d="M654.2,315.9c-2.9-4.7-1.4-10.9,3.3-13.8c0.5-0.3,1-0.6,1.6-0.8l-1.4-35.7l15.9,9.6l-1.1,32.4
	c1.7,5.3-1.3,11-6.6,12.7C661.5,321.7,656.6,319.9,654.2,315.9L654.2,315.9z"/>
<path class="st1" d="M675.4,292.7l-14.1,2.3c-2.5,0.4-4.8-1.3-5.2-3.7c0,0,0-0.1,0-0.1l-6-45l-29.5-40.4c-4.4-6.1-3.1-14.6,3-19
	c0.2-0.2,0.5-0.3,0.7-0.5l0,0c6.3-4,14.7-2.2,18.8,4.1l30.2,47.2l6,50.2c0,0.3,0,0.6,0,1C679,290.8,677.5,292.4,675.4,292.7z"/>
<polygon class="st0" points="626.7,459.9 614.5,459.9 608.6,412.6 626.7,412.6 "/>
<path class="st2" d="M605.7,456.4h23.6l0,0v14.9l0,0h-38.5l0,0l0,0C590.8,463,597.5,456.4,605.7,456.4z"/>
<polygon class="st0" points="678.5,438.9 669.3,447 635.1,413.4 647,403.5 "/>
<path class="st2" d="M660.4,450.2l17.7-15.7l0,0l9.9,11.1l0,0l-28.8,25.6l0,0l0,0C653.7,465.1,654.3,455.7,660.4,450.2z"/>
<path class="st0" d="M503.5,189.5c5.4-1.3,10.8,2.1,12.1,7.5c0.1,0.6,0.2,1.2,0.2,1.8l34.3,9.9L536,220.7l-30.4-11.3
	c-5.6-0.1-10-4.7-10-10.2C495.7,194.5,499,190.5,503.5,189.5L503.5,189.5z"/>
<circle class="st0" cx="610.5" cy="130.6" r="24.6"/>
<path class="st2" d="M628.2,451l-17.1-1.4c-2.3-0.2-4.1-2-4.1-4.3l-4.8-143.8c-0.1-2.3,1.6-4.3,3.9-4.6l34-4.7
	c2.5-0.3,4.7,1.4,5.1,3.8c0.1,0.5,0.1,0.9,0,1.4l-13,76.2c0,0.2-0.1,0.4,0,0.6l0.9,72.2c0,2.5-2,4.5-4.4,4.6c0,0,0,0-0.1,0
	C628.5,451,628.3,451,628.2,451z"/>
<path class="st2" d="M650.1,433.8l-58.6-65.2c-0.9-0.9-1.3-2.2-1.1-3.5l7.4-69.4c0.3-2.4,2.4-4.2,4.8-4l36,2.4
	c2.5,0.2,4.4,2.3,4.2,4.8c0,0.4-0.1,0.8-0.2,1.1l-21.6,63.8c-0.4,1.2-0.1,2.6,0.8,3.6l49.8,51.6c1.7,1.8,1.7,4.6-0.1,6.4
	c-0.3,0.2-0.5,0.5-0.8,0.6l-14.8,8.8C653.9,435.7,651.5,435.3,650.1,433.8z"/>
<path class="st1" d="M606.1,170.4c0,0,15-13,22-6c0,0,32.5,20.5,18.5,76.5c0,0,12,54,7,56s-55.5,9.5-59.5,3.5
	S588.1,202.4,606.1,170.4z"/>
<path class="st1" d="M518.8,216.9l2.3-14.1c0.4-2.5,2.7-4.1,5.2-3.7c0,0,0.1,0,0.1,0l44.6,8.6l47.7-15.3c7.1-2.3,14.8,1.7,17.1,8.8
	c0.1,0.3,0.2,0.5,0.2,0.8l0,0c1.8,7.3-2.6,14.7-9.8,16.5l-54.3,13.7L522.3,222c-0.3-0.1-0.6-0.2-0.9-0.3
	C519.5,220.9,518.4,218.9,518.8,216.9z"/>
<path class="st2" d="M621.1,150.6c2.2-5.2,4.1-12.1-0.2-15.8c-2.5-2.1-6.1-2.1-9.4-2.4c-9.2-0.7-18.7-5-23.2-13.1s-2-20.1,6.5-23.7
	c5.7-2.5,12.3-0.8,18.3,0.9l18,5.1c5.4,1.5,11,3.2,14.8,7.2c6.1,6.4,5.7,17.2,0.8,24.6s-12.2,15.1-20.6,17.9L621.1,150.6z"/>
<path class="st3" d="M756,473.4H508c-0.6,0-1-0.4-1-1s0.4-1,1-1h248c0.6,0,1,0.4,1,1S756.5,473.4,756,473.4z"/>
<path class="st3" d="M494,0H7C3.1,0,0,3.1,0,7v360c0,3.9,3.1,7,7,7h487c3.9,0,7-3.1,7-7V7C501,3.1,497.9,0,494,0z M499,367
	c0,2.8-2.2,5-5,5H7c-2.8,0-5-2.2-5-5V7c0-2.8,2.2-5,5-5h487c2.8,0,5,2.2,5,5V367z"/>
<rect x="1" y="28" class="st3" width="499" height="2"/>
<circle class="st3" cx="18" cy="15" r="6"/>
<circle class="st3" cx="35.2" cy="15" r="6"/>
<circle class="st3" cx="52.5" cy="15" r="6"/>
<path class="st3" d="M271.4,314.8c-0.8,0-1.5-0.6-1.5-1.4V254c0-0.8,0.7-1.4,1.5-1.4s1.5,0.6,1.5,1.4v59.4
	C272.9,314.2,272.2,314.8,271.4,314.8z"/>
<path class="st3" d="M269.3,230.8c-0.3,0-0.5-0.1-0.8-0.2l-85.9-47.9c-0.7-0.4-1-1.3-0.5-2c0.4-0.7,1.3-0.9,2.1-0.5l85.9,47.9
	c0.7,0.4,1,1.3,0.5,2C270.3,230.6,269.8,230.8,269.3,230.8z"/>
<path class="st3" d="M97.6,230.8c-0.8,0-1.5-0.6-1.5-1.4c0-0.5,0.3-1,0.8-1.3l85.9-47.9c0.7-0.4,1.6-0.2,2.1,0.5
	c0.4,0.7,0.2,1.6-0.5,2l-85.9,47.9C98.1,230.8,97.8,230.8,97.6,230.8z"/>
<path class="st3" d="M358.5,303.2c-0.3,0-0.5-0.1-0.8-0.2l-85.9-47.9c-0.7-0.4-1-1.3-0.5-2c0.4-0.7,1.3-0.9,2.1-0.5l85.9,47.9
	c0.7,0.4,1,1.3,0.5,2C359.5,303,359,303.2,358.5,303.2z"/>
<path class="st3" d="M186.7,303.2c-0.8,0-1.5-0.6-1.5-1.4c0-0.5,0.3-1,0.8-1.3l85.9-47.9c0.7-0.4,1.6-0.2,2.1,0.5
	c0.4,0.7,0.2,1.6-0.5,2L187.5,303C187.3,303.2,187,303.2,186.7,303.2z"/>
<path class="st3" d="M183.7,157c-0.8,0-1.5-0.6-1.5-1.4l-0.1-52.7c0-0.8,0.7-1.4,1.5-1.5c0,0,0,0,0,0h0c0.8,0,1.5,0.6,1.5,1.4
	l0.1,52.7C185.2,156.3,184.5,157,183.7,157C183.7,157,183.7,157,183.7,157L183.7,157z"/>
<path class="st4" d="M203.3,184.4h-39.4c-3.8,0-6.8-2.9-6.8-6.5v-19.4c0-3.6,3-6.5,6.8-6.5h39.4c3.8,0,6.8,2.9,6.8,6.5v19.4
	C210.1,181.5,207,184.4,203.3,184.4z"/>
<path class="st4" d="M115.6,258.2H76.2c-3.8,0-6.8-2.9-6.8-6.5v-19.4c0-3.6,3-6.5,6.8-6.5h39.4c3.8,0,6.8,2.9,6.8,6.5v19.4
	C122.4,255.3,119.3,258.2,115.6,258.2z"/>
<path class="st4" d="M290.7,258.2h-39.4c-3.8,0-6.8-2.9-6.8-6.5v-19.4c0-3.6,3-6.5,6.8-6.5h39.4c3.8,0,6.8,2.9,6.8,6.5v19.4
	C297.5,255.3,294.4,258.2,290.7,258.2z"/>
<path class="st4" d="M210.5,329.2h-39.4c-3.8,0-6.8-2.9-6.8-6.5v-19.4c0-3.6,3-6.5,6.8-6.5h39.4c3.8,0,6.8,2.9,6.8,6.5v19.4
	C217.3,326.2,214.3,329.2,210.5,329.2z"/>
<path class="st4" d="M378.3,329.2h-39.4c-3.8,0-6.8-2.9-6.8-6.5v-19.4c0-3.6,3-6.5,6.8-6.5h39.4c3.8,0,6.8,2.9,6.8,6.5v19.4
	C385.1,326.2,382.1,329.2,378.3,329.2z"/>
<path class="st4" d="M290.7,329.2h-39.4c-3.8,0-6.8-2.9-6.8-6.5v-19.4c0-3.6,3-6.5,6.8-6.5h39.4c3.8,0,6.8,2.9,6.8,6.5v19.4
	C297.5,326.2,294.4,329.2,290.7,329.2z"/>
<path class="st1" d="M231.4,109.6h-95.7c-3.8,0-6.8-2.9-6.8-6.5V65.8c0-3.6,3-6.5,6.8-6.5h95.7c3.8,0,6.8,2.9,6.8,6.5v37.3
	C238.2,106.7,235.2,109.6,231.4,109.6z"/>
</svg>
